<svg width="210" height="83" viewBox="0 0 210 83" fill="none" xmlns="http://www.w3.org/2000/svg">
<path fill-rule="evenodd" clip-rule="evenodd" d="M170.87 71.6001H187.27V51.8001H207.07V35.4001H187.27V15.6001H170.87V35.4001H151.07V51.8001H170.87V71.6001ZM168.87 53.8001V73.6001H189.27V53.8001H209.07V33.4001H189.27V13.6001H168.87V33.4001H149.07V53.8001H168.87Z" fill="white"/>
<path fill-rule="evenodd" clip-rule="evenodd" d="M77.8115 77.5852L77.8041 77.5814C71.0885 74.1537 65.8358 69.3347 62.1 63.1319C58.3526 56.9098 56.5133 49.6753 56.5133 41.5C56.5133 33.3248 58.3526 26.0904 62.1 19.8682C65.8358 13.6654 71.0885 8.84643 77.8041 5.41868L77.8115 5.41487C84.6076 1.98184 92.4943 0.300049 101.413 0.300049C110.266 0.300049 118.088 1.98212 124.819 5.41705C131.597 8.84175 136.884 13.6578 140.622 19.8612C144.439 26.084 146.313 33.3212 146.313 41.5C146.313 49.679 144.439 56.9163 140.622 63.1391C136.884 69.3428 131.596 74.1589 124.818 77.5836C118.087 81.0182 110.266 82.7001 101.413 82.7001C92.4943 82.7001 84.6076 81.0183 77.8115 77.5852ZM123.913 75.8001C130.38 72.5334 135.38 67.9667 138.913 62.1001C142.513 56.2334 144.313 49.3667 144.313 41.5C144.313 33.6334 142.513 26.7667 138.913 20.9C135.38 15.0334 130.38 10.4667 123.913 7.20005C117.513 3.93338 110.013 2.30005 101.413 2.30005C92.7466 2.30005 85.18 3.93338 78.7133 7.20005C72.3133 10.4667 67.3466 15.0334 63.8133 20.9C60.28 26.7667 58.5133 33.6334 58.5133 41.5C58.5133 49.3667 60.28 56.2334 63.8133 62.1001C67.3466 67.9667 72.3133 72.5334 78.7133 75.8001C85.18 79.0667 92.7466 80.7001 101.413 80.7001C110.013 80.7001 117.513 79.0667 123.913 75.8001ZM114.472 55.2133L114.473 55.2128C117.484 52.0855 119.113 47.6072 119.113 41.5C119.113 35.3173 117.48 30.8524 114.486 27.8007L114.479 27.7938L114.472 27.7868C111.547 24.747 107.296 23.1 101.413 23.1C95.6126 23.1 91.306 24.7396 88.234 27.8078C85.2443 30.8593 83.6133 35.3221 83.6133 41.5C83.6133 47.5982 85.2377 52.0723 88.2407 55.199C91.3122 58.2629 95.6168 59.9001 101.413 59.9001C107.296 59.9001 111.547 58.2531 114.472 55.2133ZM115.913 56.6001C112.513 60.1334 107.68 61.9001 101.413 61.9001C95.2133 61.9001 90.3466 60.1334 86.8133 56.6001C83.3466 53.0001 81.6133 47.9667 81.6133 41.5C81.6133 34.9667 83.3466 29.9334 86.8133 26.4C90.3466 22.8667 95.2133 21.1 101.413 21.1C107.68 21.1 112.513 22.8667 115.913 26.4C119.38 29.9334 121.113 34.9667 121.113 41.5C121.113 47.9667 119.38 53.0001 115.913 56.6001Z" fill="white"/>
<path fill-rule="evenodd" clip-rule="evenodd" d="M49.7 2V81H22.7V26.2091L0.5 30.0788V8.27514L30.493 2H49.7ZM24.7 23.8303V79H47.7V4H30.7L2.5 9.9V27.7L24.7 23.8303Z" fill="white"/>
</svg>
