<svg width="385" height="83" viewBox="0 0 385 83" fill="none" xmlns="http://www.w3.org/2000/svg">
<path fill-rule="evenodd" clip-rule="evenodd" d="M346.066 71.6001H362.466V51.8001H382.266V35.4001H362.466V15.6001H346.066V35.4001H326.266V51.8001H346.066V71.6001ZM344.066 53.8001V73.6001H364.466V53.8001H384.266V33.4001H364.466V13.6001H344.066V33.4001H324.266V53.8001H344.066Z" fill="white"/>
<path fill-rule="evenodd" clip-rule="evenodd" d="M253.007 77.5852L252.999 77.5814C246.284 74.1537 241.031 69.3347 237.295 63.1319C233.548 56.9098 231.709 49.6753 231.709 41.5C231.709 33.3248 233.548 26.0904 237.295 19.8682C241.031 13.6654 246.284 8.84643 252.999 5.41868L253.007 5.41487C259.803 1.98184 267.69 0.300049 276.609 0.300049C285.461 0.300049 293.282 1.98186 300.013 5.41627C306.792 8.84127 312.08 13.658 315.819 19.8626C319.635 26.0851 321.509 33.3218 321.509 41.5C321.509 49.6784 319.634 56.9152 315.818 63.1377C312.08 69.3425 306.791 74.1594 300.012 77.5844C293.281 81.0184 285.46 82.7001 276.609 82.7001C267.69 82.7001 259.803 81.0183 253.007 77.5852ZM314.109 62.1001C317.709 56.2334 319.509 49.3667 319.509 41.5C319.509 33.6334 317.709 26.7667 314.109 20.9C310.575 15.0334 305.575 10.4667 299.109 7.20005C292.709 3.93338 285.209 2.30005 276.609 2.30005C267.942 2.30005 260.375 3.93338 253.909 7.20005C247.509 10.4667 242.542 15.0334 239.009 20.9C235.475 26.7667 233.709 33.6334 233.709 41.5C233.709 49.3667 235.475 56.2334 239.009 62.1001C242.542 67.9667 247.509 72.5334 253.909 75.8001C260.375 79.0667 267.942 80.7001 276.609 80.7001C285.209 80.7001 292.709 79.0667 299.109 75.8001C305.575 72.5334 310.575 67.9667 314.109 62.1001ZM289.667 55.2133L289.668 55.2128C292.679 52.0855 294.309 47.6072 294.309 41.5C294.309 35.3173 292.675 30.8524 289.681 27.8007L289.674 27.7938L289.667 27.7868C286.742 24.747 282.491 23.1 276.609 23.1C270.808 23.1 266.501 24.7395 263.429 27.8077C260.44 30.8592 258.809 35.3221 258.809 41.5C258.809 47.5983 260.433 52.0724 263.436 55.1991C266.508 58.2629 270.812 59.9001 276.609 59.9001C282.491 59.9001 286.742 58.2531 289.667 55.2133ZM262.009 26.4C265.542 22.8667 270.409 21.1 276.609 21.1C282.875 21.1 287.709 22.8667 291.109 26.4C294.575 29.9334 296.309 34.9667 296.309 41.5C296.309 47.9667 294.575 53.0001 291.109 56.6001C287.709 60.1334 282.875 61.9001 276.609 61.9001C270.409 61.9001 265.542 60.1334 262.009 56.6001C258.542 53.0001 256.809 47.9667 256.809 41.5C256.809 34.9667 258.542 29.9334 262.009 26.4Z" fill="white"/>
<path fill-rule="evenodd" clip-rule="evenodd" d="M159.55 77.5852L159.542 77.5814C152.827 74.1537 147.574 69.3347 143.838 63.1319C140.091 56.9098 138.252 49.6753 138.252 41.5C138.252 33.3248 140.091 26.0904 143.838 19.8682C147.574 13.6654 152.827 8.84643 159.542 5.41868L159.55 5.41487C166.346 1.98184 174.233 0.300049 183.152 0.300049C192.005 0.300049 199.827 1.98212 206.558 5.41705C213.335 8.84175 218.623 13.6578 222.361 19.8612C226.177 26.084 228.052 33.3212 228.052 41.5C228.052 49.679 226.177 56.9163 222.361 63.1391C218.622 69.3428 213.335 74.1589 206.557 77.5836C199.826 81.0182 192.004 82.7001 183.152 82.7001C174.233 82.7001 166.346 81.0183 159.55 77.5852ZM205.652 75.8001C212.118 72.5334 217.118 67.9667 220.652 62.1001C224.252 56.2334 226.052 49.3667 226.052 41.5C226.052 33.6334 224.252 26.7667 220.652 20.9C217.118 15.0334 212.118 10.4667 205.652 7.20005C199.252 3.93338 191.752 2.30005 183.152 2.30005C174.485 2.30005 166.918 3.93338 160.452 7.20005C154.052 10.4667 149.085 15.0334 145.552 20.9C142.018 26.7667 140.252 33.6334 140.252 41.5C140.252 49.3667 142.018 56.2334 145.552 62.1001C149.085 67.9667 154.052 72.5334 160.452 75.8001C166.918 79.0667 174.485 80.7001 183.152 80.7001C191.752 80.7001 199.252 79.0667 205.652 75.8001ZM196.21 55.2133L196.211 55.2128C199.222 52.0855 200.852 47.6072 200.852 41.5C200.852 35.3173 199.218 30.8524 196.224 27.8007L196.217 27.7938L196.21 27.7868C193.285 24.747 189.034 23.1 183.152 23.1C177.351 23.1 173.045 24.7393 169.973 27.8071C166.983 30.8586 165.352 35.3216 165.352 41.5C165.352 47.5983 166.976 52.0725 169.979 55.1992C173.051 58.263 177.355 59.9001 183.152 59.9001C189.034 59.9001 193.285 58.2531 196.21 55.2133ZM168.552 26.4C172.085 22.8667 176.952 21.1 183.152 21.1C189.418 21.1 194.252 22.8667 197.652 26.4C201.118 29.9334 202.852 34.9667 202.852 41.5C202.852 47.9667 201.118 53.0001 197.652 56.6001C194.252 60.1334 189.418 61.9001 183.152 61.9001C176.952 61.9001 172.085 60.1334 168.552 56.6001C165.085 53.0001 163.352 47.9667 163.352 41.5C163.352 34.9667 165.085 29.9334 168.552 26.4Z" fill="white"/>
<path fill-rule="evenodd" clip-rule="evenodd" d="M65.1916 2H129.013V22.9H83.9352L82.6031 31.1526C84.2038 30.3241 85.9313 29.6085 87.7808 29.0026C91.7657 27.6521 96.3549 27 101.513 27C108.124 27 113.945 28.0669 118.923 30.2713C123.873 32.4632 127.78 35.5461 130.552 39.553C133.407 43.5839 134.813 48.2592 134.813 53.5C134.813 59.225 133.23 64.3404 130.035 68.77C126.845 73.1928 122.254 76.5987 116.387 79.0441C110.547 81.5063 103.603 82.7 95.6132 82.7C87.8895 82.7 81.0348 81.5726 75.0894 79.2644L75.0819 79.2615C69.2449 76.9684 64.5499 73.8327 61.0947 69.8016L61.0823 69.7871L61.0702 69.7724C57.6919 65.6753 55.7839 61.087 55.4185 56.0446L55.2631 53.9H81.9626L82.3498 55.4003C82.6928 56.7296 83.7358 58.0439 86.0166 59.2156C88.3079 60.3588 91.4653 61 95.6132 61C98.3822 61 100.637 60.6536 102.428 60.021C104.295 59.3182 105.59 58.4072 106.445 57.359C107.276 56.2747 107.713 54.9858 107.713 53.4C107.713 51.9428 107.306 50.6906 106.496 49.5763C105.701 48.4834 104.479 47.5574 102.691 46.8651C100.916 46.178 98.6751 45.8 95.9132 45.8C93.5884 45.8 91.532 46.0516 89.7286 46.5325L89.6982 46.5406L89.6677 46.5477C87.8264 46.9773 86.2906 47.5774 85.0307 48.3219L85.0182 48.3293L85.0055 48.3365C83.7057 49.0792 82.584 49.8706 81.6302 50.7052L81.0647 51.2H57.7898L65.1916 2ZM103.113 61.9C101.047 62.6333 98.5466 63 95.6132 63C91.2799 63 87.7799 62.3333 85.1132 61C82.5132 59.6667 80.9466 57.9667 80.4132 55.9H57.4132C57.4622 56.5753 57.5413 57.242 57.6505 57.9C58.2857 61.7245 59.9399 65.2579 62.6132 68.5C65.8132 72.2333 70.2132 75.2 75.8132 77.4C81.4799 79.6 88.0799 80.7 95.6132 80.7C103.413 80.7 110.08 79.5333 115.613 77.2C121.213 74.8667 125.48 71.6667 128.413 67.6C131.347 63.5333 132.813 58.8333 132.813 53.5C132.813 48.6333 131.513 44.3667 128.913 40.7C126.38 37.0333 122.78 34.1667 118.113 32.1C113.447 30.0333 107.913 29 101.513 29C96.5132 29 92.1466 29.6333 88.4132 30.9C86.1199 31.6505 84.0483 32.5706 82.1983 33.6602C81.4009 34.1298 80.6448 34.6309 79.9298 35.1635L82.2321 20.9H127.013V4H66.9132L60.1132 49.2H80.3132C81.3799 48.2667 82.6132 47.4 84.0132 46.6C85.4799 45.7333 87.2132 45.0667 89.2132 44.6C91.2132 44.0667 93.4466 43.8 95.9132 43.8C98.8466 43.8 101.347 44.2 103.413 45C105.48 45.8 107.047 46.9333 108.113 48.4C109.18 49.8667 109.713 51.5333 109.713 53.4C109.713 55.4 109.147 57.1333 108.013 58.6C106.88 60 105.247 61.1 103.113 61.9Z" fill="white"/>
<path fill-rule="evenodd" clip-rule="evenodd" d="M49.7 2V81H22.7V26.2091L0.5 30.0788V8.27514L30.493 2H49.7ZM24.7 23.8303V79H47.7V4H30.7L2.5 9.9V27.7L24.7 23.8303Z" fill="white"/>
</svg>
