<svg width="321" height="83" viewBox="0 0 321 83" fill="none" xmlns="http://www.w3.org/2000/svg">
<path fill-rule="evenodd" clip-rule="evenodd" d="M282.714 71.6001H299.114V51.8001H318.914V35.4001H299.114V15.6001H282.714V35.4001H262.914V51.8001H282.714V71.6001ZM280.714 53.8001V73.6001H301.114V53.8001H320.914V33.4001H301.114V13.6001H280.714V33.4001H260.914V53.8001H280.714Z" fill="white"/>
<path fill-rule="evenodd" clip-rule="evenodd" d="M189.655 77.5852L189.648 77.5814C182.932 74.1537 177.68 69.3347 173.944 63.1319C170.196 56.9098 168.357 49.6753 168.357 41.5C168.357 33.3248 170.196 26.0904 173.944 19.8682C177.68 13.6654 182.932 8.84643 189.648 5.41868L189.655 5.41487C196.451 1.98184 204.338 0.300049 213.257 0.300049C222.11 0.300049 229.932 1.98212 236.663 5.41705C243.441 8.84175 248.728 13.6578 252.466 19.8612C256.283 26.084 258.157 33.3212 258.157 41.5C258.157 49.679 256.283 56.9163 252.466 63.1391C248.728 69.3428 243.44 74.1589 236.662 77.5836C229.931 81.0182 222.11 82.7001 213.257 82.7001C204.338 82.7001 196.451 81.0183 189.655 77.5852ZM235.757 75.8001C242.224 72.5334 247.224 67.9667 250.757 62.1001C254.357 56.2334 256.157 49.3667 256.157 41.5C256.157 33.6334 254.357 26.7667 250.757 20.9C247.224 15.0334 242.224 10.4667 235.757 7.20005C229.357 3.93338 221.857 2.30005 213.257 2.30005C204.59 2.30005 197.024 3.93338 190.557 7.20005C184.157 10.4667 179.19 15.0334 175.657 20.9C172.124 26.7667 170.357 33.6334 170.357 41.5C170.357 49.3667 172.124 56.2334 175.657 62.1001C179.19 67.9667 184.157 72.5334 190.557 75.8001C197.024 79.0667 204.59 80.7001 213.257 80.7001C221.857 80.7001 229.357 79.0667 235.757 75.8001ZM226.316 55.2133L226.316 55.2128C229.328 52.0855 230.957 47.6072 230.957 41.5C230.957 35.3173 229.324 30.8524 226.329 27.8007L226.323 27.7938L226.316 27.7868C223.391 24.747 219.139 23.1 213.257 23.1C207.457 23.1 203.15 24.7393 200.078 27.8071C197.088 30.8586 195.457 35.3216 195.457 41.5C195.457 47.5983 197.081 52.0725 200.085 55.1992C203.156 58.263 207.461 59.9001 213.257 59.9001C219.139 59.9001 223.391 58.2531 226.316 55.2133ZM198.657 26.4C202.19 22.8667 207.057 21.1 213.257 21.1C219.524 21.1 224.357 22.8667 227.757 26.4C231.224 29.9334 232.957 34.9667 232.957 41.5C232.957 47.9667 231.224 53.0001 227.757 56.6001C224.357 60.1334 219.524 61.9001 213.257 61.9001C207.057 61.9001 202.19 60.1334 198.657 56.6001C195.19 53.0001 193.457 47.9667 193.457 41.5C193.457 34.9667 195.19 29.9334 198.657 26.4Z" fill="white"/>
<path fill-rule="evenodd" clip-rule="evenodd" d="M95.2971 2H159.119V22.9H114.041L112.709 31.1526C114.309 30.3241 116.037 29.6085 117.886 29.0026C121.871 27.6521 126.46 27 131.619 27C138.229 27 144.051 28.0669 149.029 30.2713C153.978 32.4632 157.886 35.5461 160.657 39.553C163.512 43.5839 164.919 48.2592 164.919 53.5C164.919 59.225 163.336 64.3404 160.141 68.77C156.951 73.1925 152.361 76.5982 146.494 79.0436C140.654 81.5061 133.709 82.7 125.719 82.7C117.995 82.7 111.14 81.5726 105.195 79.2644L105.187 79.2615C99.3504 76.9684 94.6554 73.8327 91.2002 69.8016L91.1878 69.7871L91.1756 69.7724C87.7974 65.6753 85.8893 61.087 85.5239 56.0446L85.3685 53.9H112.068L112.455 55.4003C112.798 56.7296 113.841 58.0439 116.122 59.2156C118.413 60.3588 121.571 61 125.719 61C128.488 61 130.743 60.6535 132.533 60.021C134.4 59.3183 135.695 58.4073 136.55 57.3593C137.382 56.2749 137.819 54.986 137.819 53.4C137.819 51.9428 137.412 50.6906 136.601 49.5763C135.806 48.4834 134.585 47.5574 132.797 46.8651C131.022 46.178 128.781 45.8 126.019 45.8C123.694 45.8 121.637 46.0516 119.834 46.5325L119.804 46.5406L119.773 46.5477C117.932 46.9773 116.396 47.5774 115.136 48.3219L115.124 48.3293L115.111 48.3365C113.811 49.0792 112.69 49.8706 111.736 50.7052L111.17 51.2H87.8953L95.2971 2ZM138.119 58.6C136.985 60 135.352 61.1 133.219 61.9C131.152 62.6333 128.652 63 125.719 63C121.385 63 117.885 62.3333 115.219 61C112.619 59.6667 111.052 57.9667 110.519 55.9H87.5187C87.5676 56.5753 87.6467 57.242 87.756 57.9C88.3911 61.7245 90.0453 65.2579 92.7187 68.5C95.9187 72.2333 100.319 75.2 105.919 77.4C111.585 79.6 118.185 80.7 125.719 80.7C133.519 80.7 140.185 79.5333 145.719 77.2C151.319 74.8667 155.585 71.6667 158.519 67.6C161.452 63.5333 162.919 58.8333 162.919 53.5C162.919 48.6333 161.619 44.3667 159.019 40.7C156.485 37.0333 152.885 34.1667 148.219 32.1C143.552 30.0333 138.019 29 131.619 29C126.619 29 122.252 29.6333 118.519 30.9C116.225 31.6505 114.154 32.5706 112.304 33.6602C111.506 34.1298 110.75 34.6309 110.035 35.1635L112.338 20.9H157.119V4H97.0187L90.2187 49.2H110.419C111.485 48.2667 112.719 47.4 114.119 46.6C115.585 45.7333 117.319 45.0667 119.319 44.6C121.319 44.0667 123.552 43.8 126.019 43.8C128.952 43.8 131.452 44.2 133.519 45C135.585 45.8 137.152 46.9333 138.219 48.4C139.285 49.8667 139.819 51.5333 139.819 53.4C139.819 55.4 139.252 57.1333 138.119 58.6Z" fill="white"/>
<path fill-rule="evenodd" clip-rule="evenodd" d="M25.6367 38.77C28.4732 36.2924 31.7276 34.3024 35.4 32.8C39.8666 30.9334 44.9333 30.0001 50.6 30.0001C56.9333 30.0001 62.3333 31.0334 66.8 33.1001C71.3333 35.1667 74.8 38.0334 77.2 41.7001C79.6666 45.3667 80.9 49.6001 80.9 54.4001C80.9 59.4667 79.4666 64.0001 76.6 68.0001C73.7333 71.9334 69.5666 75.0334 64.1 77.3001C58.6333 79.5667 51.9 80.7001 43.9 80.7001C34.5 80.7001 26.7 79.0334 20.5 75.7001C14.3 72.3667 9.66664 67.7667 6.59998 61.9001C3.59998 55.9667 2.09998 49.2001 2.09998 41.6001C2.09998 34 3.63331 27.2334 6.69998 21.3001C9.76664 15.3667 14.3666 10.7334 20.5 7.40005C26.6333 4.00005 34.2666 2.30005 43.4 2.30005C50.0666 2.30005 55.9666 3.33338 61.1 5.40005C66.3 7.40005 70.4667 10.1334 73.6 13.6C76.2992 16.468 78.0972 19.668 78.994 23.2C79.1603 23.8553 79.2957 24.522 79.4 25.2H58.1C57.2333 23.4 55.6666 21.9001 53.4 20.7001C51.1333 19.5001 48 18.9 44 18.9C39.4666 18.9 35.6666 19.7334 32.6 21.4C29.6 23.0667 27.3333 25.5001 25.8 28.7C24.6216 31.271 23.9166 34.3153 23.685 37.833C23.6408 38.5034 23.6139 39.191 23.6041 39.8958C23.6041 39.8986 23.6041 39.9013 23.604 39.9041C23.6013 40.1014 23.6 40.3 23.6 40.5C23.6 40.5659 23.6001 40.6317 23.6004 40.6973C23.6657 40.6313 23.7314 40.5656 23.7973 40.5C23.8646 40.4331 23.9321 40.3665 24 40.3C24.5292 39.7709 25.0747 39.2608 25.6367 38.77ZM27.159 55.6954C28.7056 58.134 30.6859 60.0356 33.1 61.4001C36.1666 63.1334 39.9 64.0001 44.3 64.0001C47.1666 64.0001 49.6 63.6001 51.6 62.8001C53.6 62.0001 55.1 60.9334 56.1 59.6001C57.1 58.2667 57.6 56.8 57.6 55.2001C57.6 53.4001 57.1 51.8667 56.1 50.6001C55.1666 49.2667 53.7333 48.2667 51.8 47.6001C49.8666 46.9334 47.5 46.6001 44.7 46.6001C40.9 46.6001 37.2333 47.4001 33.7 49.0001C31.6448 49.8919 29.6572 51.0883 27.7373 52.5892C27.5532 52.7332 27.3697 52.8799 27.1868 53.0295C27.1655 53.0469 27.1443 53.0643 27.1231 53.0817C26.7976 53.3492 26.474 53.6257 26.1525 53.911C26.4647 54.5347 26.8002 55.1295 27.159 55.6954ZM28.6963 54.3807C30.1024 56.6816 31.8999 58.4244 34.0841 59.6589C36.7845 61.1852 40.1601 62.0001 44.3 62.0001C46.9917 62.0001 49.1574 61.623 50.8572 60.9431C52.6144 60.2402 53.7757 59.3658 54.5 58.4001C55.2519 57.3975 55.6 56.3484 55.6 55.2001C55.6 53.7949 55.2193 52.7122 54.5302 51.8393L54.4945 51.7942L54.4615 51.747C53.8262 50.8394 52.7856 50.0555 51.148 49.4908C49.486 48.9177 47.3542 48.6001 44.7 48.6001C41.1905 48.6001 37.8046 49.3368 34.525 50.822L34.5106 50.8285L34.4962 50.8347C32.5154 51.6943 30.5814 52.8714 28.6963 54.3807ZM25.8705 35.9864C28.4947 33.9462 31.419 32.2684 34.6358 30.9518C39.383 28.9691 44.716 28.0001 50.6 28.0001C57.1409 28.0001 62.8417 29.066 67.6347 31.2825C72.457 33.4819 76.2331 36.5758 78.8663 40.5939C81.5695 44.6167 82.9 49.2426 82.9 54.4001C82.9 59.8714 81.3433 64.8148 78.2256 69.1651L78.221 69.1716L78.2163 69.178C75.0906 73.4667 70.5988 76.7705 64.866 79.1475C59.0873 81.5436 52.0759 82.7001 43.9 82.7001C34.2759 82.7001 26.1253 80.9951 19.5529 77.4616C13.024 73.9514 8.09158 69.0708 4.82753 62.8266L4.82126 62.8146L4.81515 62.8025C1.65465 56.5517 0.0999756 49.4685 0.0999756 41.6001C0.0999756 33.7249 1.69075 26.6359 4.92326 20.3817C8.18107 14.0786 13.0731 9.16183 19.5376 5.64677C26.0428 2.04268 34.0306 0.300049 43.4 0.300049C50.2653 0.300049 56.4219 1.3632 61.8324 3.53891C67.2556 5.62685 71.6942 8.51426 75.0701 12.2439C78.5204 15.915 80.6454 20.1424 81.3767 24.8959L81.7312 27.2H56.8432L56.298 26.0677C55.6632 24.7493 54.461 23.5247 52.4642 22.4676C50.6031 21.4824 47.839 20.9 44 20.9C39.7079 20.9 36.261 21.6889 33.5633 23.1528C30.9473 24.6082 28.9701 26.7198 27.611 29.5489C26.7746 31.3785 26.1865 33.5178 25.8705 35.9864Z" fill="white"/>
</svg>
