<svg width="32.000000" height="32.000000" viewBox="0 0 32 32" fill="none" xmlns="http://www.w3.org/2000/svg" xmlns:xlink="http://www.w3.org/1999/xlink">
	<desc>
			Created with Pixso.
	</desc>
	<defs>
		<clipPath id="clip2060_1347">
			<rect id="pixelarticons:arrow-right" width="32.000000" height="32.000000" transform="translate(-0.500000 0.000000)" fill="white" fill-opacity="0"/>
		</clipPath>
	</defs>
	<rect id="pixelarticons:arrow-right" width="32.000000" height="32.000000" transform="translate(-0.500000 0.000000)" fill="#FFFFFF" fill-opacity="0"/>
	<g clip-path="url(#clip2060_1347)">
		<path id="Vector" d="M4.83 14.66L4.83 17.33L20.83 17.33L20.83 20L23.5 20L23.5 17.33L26.16 17.33L26.16 14.66L23.5 14.66L23.5 12L20.83 12L20.83 14.66L4.83 14.66ZM18.16 9.33L20.83 9.33L20.83 12L18.16 12L18.16 9.33ZM18.16 9.33L15.5 9.33L15.5 6.66L18.16 6.66L18.16 9.33ZM18.16 22.66L20.83 22.66L20.83 20L18.16 20L18.16 22.66ZM18.16 22.66L15.5 22.66L15.5 25.33L18.16 25.33L18.16 22.66Z" fill="#222222" fill-opacity="1.000000" fill-rule="nonzero"/>
	</g>
</svg>
