<svg width="20" height="18" viewBox="0 0 20 18" fill="none" xmlns="http://www.w3.org/2000/svg">
<path d="M18.7026 2.86983L18.7023 2.86926C18.0274 1.48736 15.9904 0.242627 13.5287 0.959141L13.5268 0.959702C12.3483 1.29929 11.3205 2.02743 10.611 3.02475L9.99986 3.8838L9.38873 3.02475C8.67938 2.02763 7.65184 1.29958 6.47367 0.959907C4.00105 0.253138 1.97101 1.49014 1.29739 2.86926L1.29711 2.86983C0.287456 4.93253 0.638516 7.33125 2.67889 10.1228L18.7026 2.86983ZM18.7026 2.86983C19.7124 4.9329 19.361 7.33205 17.3262 10.1241L17.3248 10.1259M18.7026 2.86983L17.3248 10.1259M17.3248 10.1259C15.7208 12.3411 13.405 14.5752 10.003 17.2171M17.3248 10.1259L10.003 17.2171M10.003 17.2171C6.59769 14.5709 4.28535 12.3173 2.67918 10.1232L10.003 17.2171Z" stroke="white" stroke-width="1.5"/>
</svg>
