<svg width="122.000000" height="48.000000" viewBox="0 0 122 48" fill="none" xmlns="http://www.w3.org/2000/svg" xmlns:xlink="http://www.w3.org/1999/xlink">
	<desc>
			Created with Pixso.
	</desc>
	<defs>
		<clipPath id="clip2060_1323">
			<rect id="icon" width="48.000000" height="48.000000" fill="white" fill-opacity="0"/>
		</clipPath>
	</defs>
	<rect id="icon" width="48.000000" height="48.000000" fill="#FFFFFF" fill-opacity="0"/>
	<g clip-path="url(#clip2060_1323)">
		<path id="Vector" d="M24 37.5C22.26 37.5 20.56 37.07 19.03 36.25C17.5 35.43 16.2 34.25 15.25 32.8L17.74 31.14C18.43 32.17 19.36 33.02 20.45 33.6C21.54 34.19 22.76 34.5 24 34.5C25.23 34.5 26.45 34.19 27.54 33.6C28.63 33.02 29.56 32.17 30.25 31.14L32.74 32.8C31.79 34.25 30.49 35.43 28.96 36.25C27.43 37.07 25.73 37.5 24 37.5ZM30 21C29.4 21 28.82 21.17 28.33 21.5C27.83 21.83 27.45 22.3 27.22 22.85C27 23.4 26.94 24 27.05 24.58C27.17 25.16 27.45 25.7 27.87 26.12C28.29 26.54 28.83 26.82 29.41 26.94C29.99 27.05 30.6 26.99 31.14 26.77C31.69 26.54 32.16 26.16 32.49 25.66C32.82 25.17 33 24.59 33 24C33 23.6 32.92 23.21 32.77 22.84C32.63 22.48 32.4 22.14 32.13 21.86C31.85 21.59 31.51 21.36 31.15 21.22C30.78 21.07 30.39 20.99 30 21ZM18 21C17.4 21 16.82 21.17 16.33 21.5C15.83 21.83 15.45 22.3 15.22 22.85C15 23.4 14.94 24 15.05 24.58C15.17 25.16 15.45 25.7 15.87 26.12C16.29 26.54 16.83 26.82 17.41 26.94C17.99 27.05 18.6 26.99 19.14 26.77C19.69 26.54 20.16 26.16 20.49 25.66C20.82 25.17 21 24.59 21 24C21 23.6 20.92 23.21 20.77 22.84C20.63 22.48 20.4 22.14 20.13 21.86C19.85 21.59 19.51 21.36 19.15 21.22C18.78 21.07 18.39 20.99 18 21Z" fill="#D4FF00" fill-opacity="1.000000" fill-rule="nonzero"/>
		<path id="Vector" d="M45 24L45 21L42 21L42 15C41.99 13.4 41.36 11.88 40.24 10.75C39.11 9.63 37.59 9 36 9L33 9L33 3L30 3L30 9L18 9L18 3L15 3L15 9L12 9C10.4 9 8.88 9.63 7.75 10.75C6.63 11.88 6 13.4 6 15L6 21L3 21L3 24L6 24L6 31.5L3 31.5L3 34.5L6 34.5L6 39C6 40.59 6.63 42.11 7.75 43.24C8.88 44.36 10.4 44.99 12 45L36 45C37.59 44.99 39.11 44.36 40.24 43.24C41.36 42.11 41.99 40.59 42 39L42 34.5L45 34.5L45 31.5L42 31.5L42 24L45 24ZM39 39C38.99 39.79 38.68 40.55 38.12 41.12C37.55 41.68 36.79 41.99 36 42L12 42C11.2 41.99 10.44 41.68 9.87 41.12C9.31 40.55 9 39.79 9 39L9 15C9 14.2 9.31 13.44 9.87 12.87C10.44 12.31 11.2 12 12 12L36 12C36.79 12 37.55 12.31 38.12 12.87C38.68 13.44 38.99 14.2 39 15L39 39Z" fill="#D4FF00" fill-opacity="1.000000" fill-rule="nonzero"/>
	</g>
	<path id="Data Light" d="M92.05 9.12Q92.35 9.12 92.61 9.23L92.61 9.23Q92.81 9.32 92.99 9.48Q93.16 9.64 93.27 9.85Q93.39 10.09 93.4 10.39L93.4 12.09L100.04 12.09Q100.33 12.09 100.57 12.19Q100.79 12.28 100.98 12.46C101.22 12.72 101.35 13.03 101.35 13.4Q101.35 13.68 101.24 13.93Q101.15 14.14 100.97 14.33C100.71 14.58 100.4 14.71 100.04 14.71L93.4 14.71L93.4 15.1C93.4 15.17 93.39 15.24 93.39 15.31C93.39 15.76 93.43 16.18 93.5 16.57Q93.55 16.81 93.64 17.02Q93.8 17.43 94.12 17.77C94.45 18.12 94.86 18.31 95.35 18.34L100.12 18.34Q100.42 18.35 100.66 18.47Q100.86 18.57 101.02 18.75C101.27 19.01 101.39 19.32 101.39 19.69C101.37 20.04 101.25 20.33 101.01 20.58C100.76 20.82 100.47 20.94 100.12 20.96L94.69 20.96Q93.7 20.9 92.96 20.44Q92.68 20.27 92.43 20.03C91.84 19.46 91.41 18.77 91.15 17.95C90.9 17.13 90.77 16.26 90.76 15.33L90.76 14.71L88.51 14.71C88.15 14.71 87.84 14.58 87.6 14.32Q87.41 14.14 87.31 13.92Q87.21 13.68 87.21 13.4Q87.21 13.11 87.31 12.87Q87.41 12.65 87.59 12.47C87.84 12.22 88.15 12.09 88.51 12.09L90.76 12.09L90.76 10.39C90.77 10.04 90.9 9.74 91.15 9.5C91.4 9.26 91.7 9.13 92.05 9.12ZM65.7 9.43Q66.5 9.48 67.13 9.82Q67.58 10.07 67.95 10.48C68.53 11.12 68.96 11.85 69.22 12.67Q69.42 13.31 69.52 13.96Q69.61 14.57 69.61 15.19Q69.61 15.85 69.51 16.49Q69.41 17.11 69.23 17.71Q69.08 18.21 68.84 18.66Q68.49 19.33 67.96 19.91C67.37 20.56 66.61 20.9 65.7 20.96L58.51 20.96Q58.22 20.95 57.98 20.83Q57.79 20.73 57.63 20.58Q57.47 20.42 57.37 20.23Q57.26 19.98 57.25 19.69L57.25 14.84Q57.26 14.54 57.38 14.3Q57.48 14.1 57.66 13.93Q57.83 13.77 58.04 13.68Q58.29 13.57 58.59 13.57Q58.88 13.58 59.11 13.69Q59.32 13.79 59.49 13.95C59.74 14.19 59.87 14.49 59.88 14.84L59.88 17.81Q59.88 18.07 60.01 18.2Q60.15 18.34 60.43 18.34L65.04 18.34Q65.45 18.32 65.79 18.14Q66.05 18 66.27 17.77C66.59 17.42 66.83 17.02 66.98 16.57Q67.12 16.17 67.17 15.75Q67.21 15.48 67.21 15.19C67.21 14.73 67.13 14.27 66.98 13.82C66.83 13.37 66.59 12.97 66.27 12.62C65.94 12.26 65.53 12.08 65.04 12.05L58.51 12.05Q57.93 12 57.61 11.68Q57.29 11.37 57.25 10.78Q57.25 10.48 57.35 10.22Q57.44 10.02 57.61 9.84C57.85 9.58 58.15 9.45 58.51 9.43L65.7 9.43ZM82.66 19.92L82.66 15.21C82.66 14.89 82.49 14.72 82.15 14.71L75.31 14.71Q75.18 14.71 75.07 14.75Q74.85 14.83 74.67 15.03C74.48 15.23 74.35 15.46 74.27 15.73Q74.17 16.03 74.15 16.34L74.15 16.34Q74.14 16.44 74.14 16.54C74.14 16.8 74.18 17.07 74.27 17.33C74.35 17.6 74.48 17.83 74.67 18.04Q74.84 18.23 75.06 18.3Q75.18 18.34 75.31 18.34L80.31 18.34C80.68 18.34 80.99 18.47 81.24 18.72Q81.42 18.9 81.51 19.12Q81.62 19.36 81.62 19.65C81.62 20.01 81.49 20.32 81.23 20.57C80.98 20.83 80.68 20.96 80.31 20.96L75.39 20.96C74.48 20.94 73.73 20.69 73.13 20.18C72.54 19.68 72.12 19.12 71.86 18.49Q71.66 17.98 71.57 17.45Q71.48 16.99 71.48 16.52C71.48 15.87 71.61 15.23 71.87 14.6Q72.26 13.65 73.14 12.9C73.73 12.4 74.6 12.13 75.74 12.09L83.94 12.09Q84.25 12.09 84.5 12.2L84.5 12.2Q84.71 12.29 84.88 12.45Q85.06 12.61 85.16 12.82Q85.28 13.06 85.29 13.36L85.29 19.92C85.29 20.29 85.16 20.59 84.89 20.83C84.62 21.07 84.31 21.19 83.94 21.19Q83.36 21.14 83.04 20.83Q82.71 20.51 82.66 19.92ZM114.18 19.92L114.18 15.21C114.18 14.89 114.01 14.72 113.67 14.71L106.84 14.71Q106.71 14.71 106.59 14.75Q106.37 14.83 106.19 15.03C106.01 15.23 105.87 15.46 105.79 15.73C105.71 16 105.66 16.27 105.66 16.54C105.66 16.8 105.71 17.07 105.79 17.33C105.87 17.6 106.01 17.83 106.19 18.04Q106.37 18.23 106.58 18.3Q106.7 18.34 106.84 18.34L111.84 18.34C112.2 18.34 112.51 18.47 112.76 18.72Q112.94 18.9 113.04 19.12Q113.14 19.36 113.14 19.65C113.14 20.01 113.01 20.32 112.75 20.57C112.51 20.83 112.2 20.96 111.84 20.96L106.91 20.96C106 20.94 105.25 20.69 104.66 20.18C104.07 19.68 103.64 19.12 103.39 18.49Q103.18 17.98 103.09 17.45Q103.01 16.99 103.01 16.52C103.01 15.87 103.14 15.23 103.4 14.6C103.66 13.97 104.08 13.4 104.67 12.9C105.25 12.4 106.12 12.13 107.27 12.09L115.47 12.09Q115.77 12.09 116.02 12.2Q116.23 12.29 116.41 12.45Q116.58 12.61 116.68 12.82Q116.81 13.06 116.82 13.36L116.82 19.92C116.82 20.29 116.68 20.59 116.42 20.83C116.15 21.07 115.83 21.19 115.47 21.19Q114.88 21.14 114.56 20.83Q114.24 20.51 114.18 19.92ZM70.92 29.35Q70.92 29.16 70.97 28.99Q71.08 28.67 71.39 28.42Q71.54 28.29 71.71 28.21Q72.07 28.03 72.52 28.03C72.96 28.03 73.34 28.16 73.65 28.42Q73.96 28.67 74.06 28.99Q74.12 29.16 74.12 29.35C74.12 29.73 73.96 30.05 73.65 30.31Q73.5 30.44 73.33 30.52Q72.97 30.7 72.52 30.7C72.08 30.7 71.7 30.57 71.39 30.31C71.07 30.05 70.92 29.73 70.92 29.35ZM58.53 29.12C58.9 29.12 59.21 29.24 59.47 29.48Q59.65 29.64 59.75 29.85Q59.87 30.09 59.88 30.39L59.88 35.1C59.88 35.17 59.88 35.24 59.88 35.31C59.88 35.76 59.92 36.18 59.99 36.57Q60.03 36.81 60.12 37.02L60.12 37.02Q60.29 37.43 60.6 37.77C60.93 38.12 61.34 38.31 61.83 38.34L68.08 38.34Q68.38 38.35 68.63 38.47Q68.83 38.57 68.99 38.75Q69.16 38.92 69.24 39.13L69.24 39.13Q69.35 39.38 69.35 39.69C69.34 40.04 69.21 40.33 68.97 40.58Q68.81 40.73 68.62 40.83Q68.38 40.95 68.08 40.96L61.17 40.96C60.26 40.9 59.51 40.59 58.91 40.03Q58.65 39.77 58.42 39.48Q57.91 38.81 57.64 37.95Q57.26 36.72 57.25 35.33L57.25 30.39C57.26 30.04 57.39 29.74 57.64 29.5Q57.81 29.33 58.01 29.24Q58.25 29.13 58.53 29.12ZM93.81 29.12C94.16 29.13 94.46 29.26 94.71 29.5C94.95 29.74 95.08 30.04 95.1 30.39L95.1 32.09L101.15 32.09C102.06 32.1 102.82 32.36 103.41 32.86C104 33.36 104.42 33.92 104.67 34.55C104.93 35.19 105.06 35.85 105.06 36.52L105.08 36.52L105.08 39.92C105.08 40.29 104.94 40.59 104.68 40.83C104.41 41.07 104.09 41.19 103.73 41.19C102.95 41.13 102.52 40.7 102.44 39.92L102.44 36.5C102.44 36.26 102.39 36 102.29 35.72C102.2 35.45 102.06 35.21 101.87 35.01Q101.7 34.81 101.48 34.74Q101.36 34.71 101.23 34.71L95.1 34.71L95.1 39.96C95.02 40.74 94.59 41.16 93.81 41.23C93.44 41.23 93.13 41.11 92.86 40.87C92.59 40.63 92.46 40.32 92.46 39.96L92.46 30.39Q92.47 30.09 92.59 29.85Q92.69 29.64 92.87 29.48Q93.05 29.32 93.25 29.23Q93.51 29.12 93.81 29.12ZM111.78 29.12C112.14 29.12 112.45 29.24 112.71 29.48Q112.89 29.64 112.99 29.85Q113.11 30.09 113.12 30.39L113.12 32.09L119.77 32.09C120.13 32.09 120.44 32.21 120.7 32.46C120.95 32.72 121.07 33.03 121.07 33.4C121.07 33.76 120.95 34.07 120.69 34.33C120.44 34.58 120.13 34.71 119.77 34.71L113.12 34.71L113.12 35.1C113.12 35.17 113.12 35.24 113.12 35.31C113.12 35.76 113.16 36.18 113.23 36.57Q113.28 36.81 113.36 37.02Q113.53 37.43 113.85 37.77C114.17 38.12 114.58 38.31 115.08 38.34L119.84 38.34Q120.14 38.35 120.39 38.47Q120.59 38.57 120.75 38.75C120.99 39.01 121.11 39.32 121.11 39.69C121.1 40.04 120.97 40.33 120.73 40.58C120.49 40.82 120.19 40.94 119.84 40.96L114.41 40.96C113.5 40.9 112.75 40.59 112.16 40.03C111.57 39.46 111.14 38.77 110.88 37.95C110.63 37.13 110.5 36.26 110.49 35.33L110.49 34.71L108.24 34.71C107.88 34.71 107.57 34.58 107.32 34.32C107.06 34.07 106.93 33.76 106.93 33.4C106.93 33.03 107.06 32.72 107.31 32.47C107.57 32.22 107.88 32.09 108.24 32.09L110.49 32.09L110.49 30.39C110.5 30.04 110.63 29.74 110.88 29.5C111.13 29.26 111.43 29.13 111.78 29.12ZM72.56 31.89C72.91 31.91 73.21 32.03 73.46 32.27C73.7 32.52 73.83 32.81 73.85 33.16L73.85 39.92C73.77 40.7 73.34 41.13 72.56 41.19C72.19 41.19 71.88 41.07 71.61 40.83Q71.42 40.66 71.32 40.44Q71.21 40.21 71.21 39.92L71.21 33.16Q71.22 32.86 71.34 32.62Q71.44 32.42 71.62 32.25Q71.8 32.09 72 32Q72.26 31.89 72.56 31.89ZM87.19 35.21C87.19 34.89 87.02 34.72 86.68 34.71L79.84 34.71Q79.72 34.71 79.6 34.75Q79.38 34.83 79.2 35.03C79.02 35.23 78.88 35.46 78.8 35.73C78.71 36 78.67 36.27 78.67 36.54C78.67 36.8 78.71 37.07 78.8 37.33C78.88 37.6 79.02 37.83 79.2 38.04Q79.37 38.23 79.59 38.3Q79.71 38.34 79.84 38.34L84.84 38.34C85.21 38.34 85.52 38.47 85.77 38.72C86.02 38.97 86.15 39.28 86.15 39.65C86.15 40.01 86.02 40.32 85.76 40.57C85.51 40.83 85.21 40.96 84.84 40.96L79.92 40.96C79.01 40.94 78.26 40.69 77.66 40.18C77.07 39.68 76.65 39.12 76.4 38.49Q76.19 37.98 76.1 37.45Q76.01 36.99 76.01 36.52C76.01 35.87 76.14 35.23 76.41 34.6C76.67 33.97 77.09 33.4 77.67 32.9C78.26 32.4 79.13 32.13 80.27 32.09L88.48 32.09C88.84 32.09 89.15 32.21 89.41 32.45Q89.59 32.61 89.69 32.82Q89.81 33.06 89.82 33.36L89.82 39.53C89.82 40.57 89.68 41.55 89.39 42.48C89.13 43.3 88.71 43.99 88.11 44.56C87.52 45.13 86.77 45.44 85.86 45.49L79.1 45.49C78.75 45.47 78.45 45.35 78.21 45.11C77.97 44.87 77.84 44.57 77.83 44.22C77.83 43.85 77.95 43.54 78.19 43.28Q78.36 43.1 78.56 43Q78.8 42.88 79.1 42.87L85.19 42.87C85.69 42.84 86.1 42.66 86.42 42.3C86.75 41.95 86.96 41.54 87.05 41.07Q87.19 40.37 87.19 39.26L87.19 35.21Z" fill="#FFFFFF" fill-opacity="1.000000" fill-rule="evenodd"/>
</svg>
