<svg width="36.000000" height="48.000000" viewBox="0 0 36 48" fill="none" xmlns="http://www.w3.org/2000/svg" xmlns:xlink="http://www.w3.org/1999/xlink">
	<desc>
			Created with Pixso.
	</desc>
	<defs/>
	<path id="Vector" d="M9.33 32.74C5.93 34.7 3.13 39.51 3.15 43.43C3.16 47.13 5.61 48.54 8.83 46.68C12.25 44.7 15.02 39.9 15.01 35.97C15 32.27 12.52 30.89 9.33 32.74ZM8.79 34.95C9.79 34.38 10.75 34.93 10.76 36.08C10.76 37 10.13 38.09 9.33 38.55C8.33 39.13 7.37 38.56 7.37 37.43C7.36 36.5 7.99 35.42 8.79 34.95ZM11.88 41.53C11.88 41.73 11.78 41.91 11.62 42L7.07 44.63C6.91 44.72 6.71 44.72 6.54 44.63C6.38 44.53 6.27 44.35 6.27 44.16L6.27 43.89C6.27 42.26 7.38 40.34 8.8 39.52C10.42 38.58 11.87 39.41 11.88 41.27L11.88 41.53Z" fill="#B1FE33" fill-opacity="1.000000" fill-rule="nonzero"/>
	<path id="Vector" d="M11.29 14.71L12.75 15.55C12.75 15.54 12.75 15.52 12.74 15.5C12.02 13.38 12.49 10.82 13.33 8.72C14.24 6.41 15.75 4.22 17.55 2.7C18.94 1.52 20.27 0.93 21.31 0.73C21.33 0.72 21.35 0.71 21.37 0.71L19.91 -0.14C18.66 -0.86 17.1 -0.41 15.85 0.31C12.43 2.29 9.66 7.09 9.67 11.01C9.67 12.78 10.25 14.09 11.29 14.71Z" fill="#B1FE33" fill-opacity="1.000000" fill-rule="nonzero"/>
	<path id="Vector" d="M27.76 22.57C26.04 24.31 24.69 26.68 24.1 29.03C22.81 34.12 25.34 37.15 29.46 34.77C32.87 32.8 35.64 28 35.63 24.07C35.61 19.03 31.34 18.93 27.76 22.57ZM29.41 23.05C30.42 22.47 31.38 23.03 31.38 24.17C31.38 25.1 30.75 26.18 29.95 26.64C28.95 27.22 27.99 26.67 27.99 25.52C27.99 24.6 28.61 23.51 29.41 23.05ZM32.5 29.63C32.5 29.82 32.4 30 32.23 30.1L27.7 32.71C27.61 32.77 27.52 32.79 27.43 32.79C27.13 32.79 26.9 32.55 26.9 32.25L26.9 31.99C26.89 30.36 28 28.43 29.43 27.6C31.04 26.68 32.5 27.51 32.5 29.36L32.5 29.63Z" fill="#B1FE33" fill-opacity="1.000000" fill-rule="nonzero"/>
	<path id="Vector" d="M27.08 21.75C28.31 20.52 29.86 19.4 31.61 19.05C31.63 19.05 31.66 19.04 31.69 19.03L30.23 18.19C29.8 17.94 29.32 17.81 28.79 17.81C28.57 17.81 28.36 17.83 28.14 17.88L28.13 14.72C28.13 14.53 28.02 14.36 27.86 14.26C27.69 14.17 27.49 14.17 27.33 14.26L18.04 19.63L18.03 16.97C18.38 16.83 18.75 16.67 19.14 16.45C22.56 14.47 25.33 9.67 25.32 5.75C25.32 3.98 24.74 2.67 23.71 2.07C23.7 2.06 23.7 2.06 23.7 2.06L23.67 2.05C23.67 2.05 23.66 2.04 23.66 2.04C21.96 1.1 19.72 2.25 18.22 3.52C16.64 4.86 15.29 6.77 14.44 8.79C12.41 13.6 13.67 17.65 16.96 17.23L16.97 20.25L7.13 25.92C6.95 26.02 6.86 26.2 6.86 26.39L6.87 29.95C2.87 31.22 -0.65 36.94 -0.64 41.23C-0.64 43 -0.05 44.32 0.99 44.94L2.44 45.78C2.43 45.76 2.43 45.74 2.43 45.72C2.2 45.04 2.08 44.11 2.07 43.43C2.07 39.19 5.09 33.96 8.79 31.82C9.38 31.48 10.22 31.11 11 30.95C11.02 30.95 11.04 30.94 11.06 30.94L9.6 30.09C9.12 29.81 8.55 29.69 7.94 29.74L7.92 26.7L27.06 15.65L27.07 18.2C26.77 18.31 26.47 18.45 26.16 18.63C22.74 20.61 19.97 25.41 19.98 29.33C19.99 31.1 20.56 32.41 21.6 33.02L23.06 33.88C23.06 33.85 23.06 33.83 23.05 33.81C22.64 32.61 22.53 30.92 23.06 28.8C23.72 26.24 25.2 23.64 27.08 21.75ZM19.1 4.73C20.1 4.15 21.06 4.71 21.06 5.86C21.08 6.77 20.45 7.86 19.65 8.32C18.64 8.9 17.68 8.34 17.67 7.2C17.67 6.27 18.3 5.19 19.1 4.73ZM16.59 13.93L16.59 13.66C16.59 12.03 17.69 10.1 19.11 9.28C20.73 8.35 22.18 9.2 22.18 11.04L22.2 11.31C22.2 11.5 22.09 11.68 21.93 11.78L17.39 14.39C17.3 14.44 17.21 14.46 17.12 14.46C16.83 14.46 16.59 14.23 16.59 13.93Z" fill="#B1FE33" fill-opacity="1.000000" fill-rule="nonzero"/>
</svg>
