<svg width="53.000000" height="53.000000" viewBox="0 0 53 53" fill="none" xmlns="http://www.w3.org/2000/svg" xmlns:xlink="http://www.w3.org/1999/xlink">
	<desc>
			Created with Pixso.
	</desc>
	<defs>
		<clipPath id="clip2060_1433">
			<rect id="Winner Trophy" width="53.000000" height="53.000000" fill="white" fill-opacity="0"/>
		</clipPath>
	</defs>
	<rect id="Winner Trophy" width="53.000000" height="53.000000" fill="#FFFFFF" fill-opacity="0"/>
	<g clip-path="url(#clip2060_1433)">
		<path id="Vector" d="M30.4 40.78L30.42 37.67C30.37 37.69 30.32 37.7 30.26 37.72C27.49 38.61 24.47 38.62 21.68 37.73C21.6 37.71 21.52 37.69 21.44 37.66L21.42 40.76C21.41 41.34 21.84 41.92 22.64 42.38C25.55 44.05 30.37 42.82 30.4 40.78Z" fill="#B1FE33" fill-opacity="1.000000" fill-rule="nonzero"/>
		<path id="Vector" d="M32.35 37.72C32.06 37.56 31.76 37.41 31.46 37.28L31.46 37.28L31.43 40.79C31.39 43.39 27.59 44.44 24.9 44.13C23.89 44.02 22.92 43.73 22.12 43.27C19.48 41.73 20.69 39.93 20.41 37.38C20.16 37.5 19.95 37.61 19.75 37.72C14.69 40.66 18.06 45.13 24.4 45.84C24.48 45.85 24.56 45.85 24.64 45.86C32.76 46.63 38.28 41.16 32.35 37.72Z" fill="#B1FE33" fill-opacity="1.000000" fill-rule="nonzero"/>
		<path id="Vector" d="M34.43 44.17C32.41 46.19 28.93 46.95 26.1 46.95C23 46.95 19.13 46.03 17.22 43.61L17.15 45.76C17.13 50.12 27.28 51.99 32.23 49.12C33.8 48.21 34.67 47.02 34.67 45.79L34.74 43.86C34.7 43.9 34.66 43.93 34.62 43.97C34.56 44.04 34.5 44.11 34.43 44.17Z" fill="#B1FE33" fill-opacity="1.000000" fill-rule="nonzero"/>
		<path id="Vector" d="M23.47 17.09C27.77 17.57 32.96 16.83 36.41 14.27C36.46 14.23 36.51 14.19 36.56 14.15C31.58 10.29 22.14 10.03 16.57 13.27C16.1 13.54 15.69 13.82 15.33 14.1C15.43 14.15 18.07 16.48 23.47 17.09Z" fill="#B1FE33" fill-opacity="1.000000" fill-rule="nonzero"/>
		<path id="Vector" d="M44.59 6.89C44.59 6.61 44.44 6.36 44.2 6.22C43.96 6.08 43.67 6.08 43.43 6.22L38.86 8.82C37.73 4.45 30.79 2.5 25.9 2.5C20.83 2.5 12.84 4.79 12.86 9.85C12.87 11.22 13.57 12.44 14.55 13.42C14.99 13.06 15.47 12.72 16.05 12.38C21.89 8.98 31.98 9.16 37.34 13.46C38.12 12.69 38.71 11.8 38.93 10.72C38.95 10.65 38.96 10.58 38.97 10.51C38.97 10.51 38.97 10.51 38.97 10.51C39.01 10.49 39.05 10.49 39.09 10.47L43.05 8.22L43.05 8.64C43.06 11.58 41.08 15.21 39.02 17.71L39.02 13.08C36.47 16.82 30.54 18.24 25.99 18.24C25.99 18.24 25.99 18.24 25.98 18.24C21.29 18.24 15.39 16.73 12.86 13.02L12.86 19.5L8.78 21.86C8.54 21.99 8.39 22.25 8.39 22.53L8.4 24.27C8.41 28.21 10.61 30.12 13.14 30.12C13.49 30.12 13.84 30.08 14.21 30.01C14.83 31.29 15.66 32.49 16.7 33.53C19.25 36.08 22.57 37.37 25.95 37.37C27.48 37.37 29.31 37.05 30.93 36.37C31.01 36.34 31.08 36.31 31.15 36.28C35.78 34.26 39.02 29.65 39.02 24.28L39.02 19.79C39.18 19.76 39.33 19.7 39.45 19.58C42.02 16.81 44.61 12.35 44.6 8.63L44.59 6.89ZM11.66 28.2C10.56 27.57 9.95 26.17 9.94 24.26L9.94 22.97L12.86 21.28L12.86 24.28C12.86 25.76 13.13 27.19 13.6 28.55C12.87 28.63 12.21 28.52 11.66 28.2Z" fill="#B1FE33" fill-opacity="1.000000" fill-rule="nonzero"/>
	</g>
</svg>
