<svg width="53.000000" height="53.000000" viewBox="0 0 53 53" fill="none" xmlns="http://www.w3.org/2000/svg" xmlns:xlink="http://www.w3.org/1999/xlink">
	<desc>
			Created with Pixso.
	</desc>
	<defs>
		<clipPath id="clip2060_1452">
			<rect id="Secure Shield" width="53.000000" height="53.000000" fill="white" fill-opacity="0"/>
		</clipPath>
	</defs>
	<rect id="Secure Shield" width="53.000000" height="53.000000" fill="#FFFFFF" fill-opacity="0"/>
	<g clip-path="url(#clip2060_1452)">
		<path id="Vector" d="M20.15 34.37C20.27 34.9 20.4 35.42 20.55 35.91C22.29 41.85 25.11 44.94 29.14 45.35L29.09 29.2L20.15 34.37Z" fill="#B1FE33" fill-opacity="1.000000" fill-rule="nonzero"/>
		<path id="Vector" d="M29.05 16.04C25.71 18.08 22.28 20.67 18.79 23.82C18.96 27.39 19.33 30.57 19.9 33.31L29.09 28L29.05 16.04Z" fill="#B1FE33" fill-opacity="1.000000" fill-rule="nonzero"/>
		<path id="Vector" d="M44.26 6.23C44.22 6.19 44.17 6.18 44.12 6.16C44.09 6.15 44.07 6.14 44.04 6.13C43.98 6.12 43.92 6.12 43.84 6.13C43.84 6.13 43.83 6.13 43.83 6.13C34.15 7.39 25.15 13.59 17.94 20.06C17.27 20.66 16.6 21.28 15.93 21.91C15.36 22.46 14.93 23.28 14.77 24.03C14.6 24.93 14.53 44.03 22.86 49.08C24.73 50.21 26.94 50.68 29.46 50.43C38.8 40.88 44.57 24.27 44.52 7.03C44.52 6.67 44.43 6.38 44.26 6.23ZM40.27 22.54C40.27 22.55 40.27 22.57 40.26 22.58C40.11 23.42 39.96 24.25 39.77 25.07C37.83 33.72 34.48 41.04 30.1 46.25C29.99 46.37 29.85 46.44 29.7 46.44C29.69 46.44 29.69 46.44 29.69 46.44C29.68 46.44 29.67 46.44 29.67 46.44L29.67 46.44L29.66 46.44L29.66 46.44C24.88 46.25 21.48 42.8 19.54 36.2C18.56 32.8 17.96 28.57 17.74 23.62C17.73 23.46 17.79 23.31 17.91 23.21C21.82 19.67 25.66 16.79 29.34 14.65C33.3 12.36 37.15 10.87 40.87 10.18C41.21 10.12 41.49 10.38 41.49 10.71C41.41 14.69 40.99 18.65 40.27 22.54Z" fill="#B1FE33" fill-opacity="1.000000" fill-rule="nonzero"/>
		<path id="Vector" d="M15.22 21.15C15.72 20.68 16.21 20.22 16.71 19.77C23.9 13.21 32.69 7.06 42.22 5.33C42.35 5.3 42.47 5.28 42.59 5.25L37.96 2.55C37.86 2.5 37.74 2.48 37.6 2.5C27.11 3.87 17.33 11.05 9.69 18.29C8.96 18.99 8.45 20.1 8.47 20.99C8.68 28.92 9.86 41.55 16.77 45.56L18.93 46.82C14.21 40.42 12.04 24.14 15.22 21.15Z" fill="#B1FE33" fill-opacity="1.000000" fill-rule="nonzero"/>
		<path id="Vector" d="M30.13 27.4L39.3 22.1C39.94 18.56 40.33 14.96 40.43 11.33C37.08 12.04 33.6 13.41 30.09 15.42L30.13 27.4Z" fill="#B1FE33" fill-opacity="1.000000" fill-rule="nonzero"/>
		<path id="Vector" d="M30.18 44.44C34.02 39.45 36.98 32.72 38.76 24.85C38.86 24.39 38.94 23.92 39.03 23.46L30.13 28.6L30.18 44.44Z" fill="#B1FE33" fill-opacity="1.000000" fill-rule="nonzero"/>
	</g>
</svg>
