<svg width="53.000000" height="53.000000" viewBox="0 0 53 53" fill="none" xmlns="http://www.w3.org/2000/svg" xmlns:xlink="http://www.w3.org/1999/xlink">
	<desc>
			Created with Pixso.
	</desc>
	<defs>
		<clipPath id="clip2060_1414">
			<rect id="Magnifier" width="53.000000" height="53.000000" fill="white" fill-opacity="0"/>
		</clipPath>
	</defs>
	<rect id="Magnifier" width="53.000000" height="53.000000" fill="#FFFFFF" fill-opacity="0"/>
	<g clip-path="url(#clip2060_1414)">
		<path id="Vector" d="M30.16 13.62C23.84 9.95 13.52 9.95 7.14 13.63C4.15 15.35 2.5 17.63 2.5 20.02C2.48 22.79 4.67 24.97 7.06 26.35C13.39 30.03 23.72 30.03 30.09 26.35C32.54 24.95 34.74 22.76 34.75 19.97C34.75 17.6 33.12 15.34 30.16 13.62ZM28.54 24.86C26.03 26.31 22.51 27.15 18.88 27.15C15.26 27.15 11.75 26.31 9.26 24.86C7.55 23.88 5.79 22.25 5.79 20.27C5.79 18.63 7.08 16.93 9.33 15.63C14.58 12.59 23.37 12.59 28.6 15.63C30.81 16.91 32.07 18.59 32.07 20.23C32.07 22.24 30.27 23.87 28.54 24.86Z" fill="#B1FE33" fill-opacity="1.000000" fill-rule="nonzero"/>
		<path id="Vector" d="M31.84 27.34C32.44 26.98 33.04 26.95 33.53 27.23L34.16 27.6C34.55 26.8 34.77 25.98 34.77 25.16L34.76 23.47C34.01 24.69 32.59 26.12 30.61 27.26C27.29 29.18 22.92 30.14 18.56 30.14C14.2 30.14 9.85 29.18 6.54 27.26C4.61 26.14 3.24 24.75 2.5 23.57L2.51 25.25C2.54 33.21 19.93 37.43 30.11 31.56C30.14 31.55 30.16 31.53 30.18 31.51C30.05 31.26 29.98 30.94 29.98 30.58C29.98 29.37 30.8 27.94 31.84 27.34Z" fill="#B1FE33" fill-opacity="1.000000" fill-rule="nonzero"/>
		<path id="Vector" d="M9.33 18.95C14.61 15.91 23.35 15.91 28.6 18.95C29.61 19.54 30.43 20.21 31.02 20.93C31.09 20.7 31.12 20.46 31.12 20.23C31.12 18.94 30.03 17.56 28.12 16.45C23.19 13.57 14.76 13.58 9.8 16.45C7.85 17.58 6.73 18.97 6.73 20.27C6.73 20.51 6.77 20.75 6.84 20.98C7.44 20.25 8.28 19.56 9.33 18.95Z" fill="#B1FE33" fill-opacity="1.000000" fill-rule="nonzero"/>
		<path id="Vector" d="M33 28.13C32.82 28.03 32.55 28.13 32.37 28.24C31.64 28.66 31.02 29.74 31.02 30.58C31.02 30.93 31.12 31.11 31.21 31.16C31.08 31.08 33.29 32.36 33.62 32.55C33.95 31.44 34.71 30.24 35.42 29.54C35.56 29.62 33.29 28.3 33 28.13Z" fill="#B1FE33" fill-opacity="1.000000" fill-rule="nonzero"/>
		<path id="Vector" d="M47.93 35.31C47.93 35.31 48.26 35.14 48.34 35.11C48.22 35.04 44.1 32.72 43.96 32.63C42.11 31.57 38.59 36.96 40.37 38.52L44.89 41.11C44.64 38.97 46.1 36.36 47.93 35.31Z" fill="#B1FE33" fill-opacity="1.000000" fill-rule="nonzero"/>
		<path id="Vector" d="M41.96 31.93C42.1 31.85 42.24 31.78 42.37 31.72L38.46 29.47C38.32 29.38 38.15 29.34 37.97 29.34C36.49 29.34 34.42 31.89 34.42 34.08C34.42 34.75 34.62 35.23 34.98 35.44L38.91 37.69C38.68 35.61 40.15 32.97 41.96 31.93Z" fill="#B1FE33" fill-opacity="1.000000" fill-rule="nonzero"/>
		<path id="Vector" d="M48.45 36.22C47.06 37.02 45.89 39.04 45.9 40.64C45.9 42 46.72 42.51 47.95 41.8C49.33 41 50.5 38.98 50.5 37.39C50.49 36.07 49.72 35.49 48.45 36.22Z" fill="#B1FE33" fill-opacity="1.000000" fill-rule="nonzero"/>
	</g>
</svg>
