<svg width="38.000000" height="38.000000" viewBox="0 0 38 38" fill="none" xmlns="http://www.w3.org/2000/svg" xmlns:xlink="http://www.w3.org/1999/xlink">
	<desc>
			Created with Pixso.
	</desc>
	<defs/>
	<path id="Vector" d="M7.47 4.22C7.6 6.1 7.91 7.93 8.42 9.68L5.88 12.22C5.02 9.68 4.47 7 4.28 4.22L7.47 4.22ZM28.28 29.59C30.08 30.1 31.91 30.42 33.77 30.54L33.77 33.69C30.99 33.5 28.31 32.95 25.75 32.11L28.28 29.59ZM9.5 0L2.11 0C0.94 0 0 0.94 0 2.11C0 21.93 16.06 38 35.88 38C37.05 38 38 37.05 38 35.88L38 28.52C38 27.36 37.05 26.41 35.88 26.41C33.27 26.41 30.71 25.98 28.35 25.2C28.14 25.13 27.92 25.09 27.69 25.1C27.14 25.1 26.62 25.31 26.19 25.71L21.55 30.35C15.57 27.29 10.7 22.42 7.64 16.44L12.28 11.8C12.87 11.21 13.04 10.38 12.81 9.64C12.01 7.21 11.6 4.67 11.61 2.11C11.61 0.94 10.66 0 9.5 0Z" fill="#D4FF00" fill-opacity="1.000000" fill-rule="nonzero"/>
</svg>
