<svg width="20.000000" height="18.000000" viewBox="0 0 20 18" fill="none" xmlns="http://www.w3.org/2000/svg" xmlns:xlink="http://www.w3.org/1999/xlink">
	<desc>
			Created with Pixso.
	</desc>
	<defs/>
	<path id="Vector" d="M8.96 1.46C8.3 0.9 7.52 0.48 6.68 0.23C3.86 -0.57 1.46 0.82 0.62 2.54C-0.56 4.94 -0.07 7.64 2.07 10.56C3.74 12.85 6.14 15.17 9.61 17.86C9.72 17.95 9.86 18 10 18C10.14 18 10.27 17.95 10.38 17.86C13.85 15.18 16.25 12.87 17.93 10.56C20.06 7.64 20.55 4.94 19.37 2.54C18.53 0.82 16.12 -0.58 13.31 0.23C12.47 0.48 11.69 0.9 11.03 1.46C10.64 1.79 10.29 2.17 10 2.58C9.7 2.17 9.35 1.79 8.96 1.46ZM12.99 1.96Q13.34 1.79 13.73 1.68L13.73 1.67Q14.49 1.45 15.22 1.5Q15.68 1.54 16.11 1.67Q16.3 1.73 16.48 1.81Q16.99 2.03 17.39 2.38Q17.42 2.41 17.45 2.44Q17.83 2.79 18.02 3.19Q18.31 3.77 18.42 4.38Q18.57 5.2 18.41 6.09Q18.11 7.76 16.71 9.68Q15.54 11.29 13.79 12.99Q12.21 14.51 10 16.26Q7.8 14.52 6.21 12.98Q4.46 11.29 3.28 9.68Q1.88 7.76 1.58 6.08Q1.42 5.21 1.57 4.39Q1.68 3.78 1.97 3.19Q2.16 2.79 2.54 2.44Q2.56 2.42 2.58 2.4Q2.98 2.04 3.51 1.81Q3.67 1.74 3.84 1.69Q4.28 1.54 4.76 1.51Q5.5 1.46 6.26 1.68Q6.65 1.79 7 1.96Q7.35 2.13 7.67 2.35Q8 2.59 8.28 2.87Q8.55 3.14 8.77 3.45L10 5.17L11.22 3.45Q11.44 3.14 11.71 2.87Q11.99 2.59 12.32 2.35Q12.64 2.13 12.99 1.96Z" fill="#FFFFFF" fill-opacity="1.000000" fill-rule="evenodd"/>
</svg>
